<svg width="36" height="36" viewBox="0 0 36 36" fill="none" xmlns="http://www.w3.org/2000/svg">
<path d="M31.5 19.185C31.264 21.7383 30.3058 24.1716 28.7373 26.2002C27.1689 28.2288 25.0552 29.7687 22.6435 30.6398C20.2318 31.5109 17.622 31.6772 15.1192 31.1191C12.6165 30.5611 10.3245 29.3018 8.51131 27.4887C6.69816 25.6755 5.43888 23.3835 4.88084 20.8807C4.32279 18.378 4.48905 15.7681 5.36016 13.3564C6.23128 10.9448 7.77122 8.83105 9.79979 7.26263C11.8284 5.69421 14.2617 4.73596 16.815 4.5C15.3201 6.5224 14.6007 9.01417 14.7878 11.5221C14.9748 14.0301 16.0558 16.3876 17.8341 18.1659C19.6124 19.9442 21.9699 21.0252 24.4779 21.2122C26.9858 21.3992 29.4776 20.6799 31.5 19.185V19.185Z" stroke="#753A88" stroke-width="4" stroke-linecap="round" stroke-linejoin="round"/>
</svg>
